<svg width="665" height="735" viewBox="0 0 665 735" fill="none" xmlns="http://www.w3.org/2000/svg">
<g filter="url(#filter0_d_64_6101)">
<path d="M588.786 188.268H587.844V89.3727C587.844 56.5816 561.263 30 528.472 30H168.59C135.799 30 109.217 56.5816 109.217 89.3727V188.268H108.275C103.994 188.268 100.523 191.736 100.523 196.021V264.428C100.523 268.712 103.994 272.18 108.275 272.18H109.217V288.497H108.275C103.994 288.497 100.523 291.965 100.523 296.249V364.656C100.523 368.941 103.994 372.409 108.275 372.409H109.217V852.627C109.217 885.418 135.799 912 168.59 912H528.472C561.263 912 587.844 885.418 587.844 852.627V314.137H588.786C593.07 314.137 596.539 310.668 596.539 306.384V196.021C596.539 191.736 593.07 188.268 588.786 188.268Z" fill="url(#paint0_linear_64_6101)"/>
</g>
<path d="M522.348 894.722H174.72C148.087 894.722 126.496 873.133 126.496 846.5V92.9064C126.496 66.2736 148.087 44.6848 174.72 44.6848H522.348C548.981 44.6848 570.57 66.2736 570.57 92.9064V846.5C570.57 873.133 548.981 894.722 522.348 894.722Z" fill="black"/>
<g filter="url(#filter1_d_64_6101)">
<path d="M249.256 459.771L279.33 442.459L348.462 482.264L387.484 459.733L318.426 419.853L348.801 402.692L447.707 459.733L348.462 517L249.218 459.733L249.256 459.771ZM450 421.167V455.715L350.756 398.524V373.101L380.83 355.752V381.099L450 421.017V421.167ZM450 316.022V415.309L419.926 397.96V333.371L450 316.022ZM447.744 312.267L417.67 329.616L348.5 289.736L309.479 312.267L378.574 352.184L348.199 369.346L249.256 312.229L348.462 255L447.744 312.229V312.267ZM247 350.87V316.022L346.244 373.289V398.711L316.17 416.06V390.638L247 350.757V350.87ZM247 356.015L277.074 374.528V438.704L247 456.016V355.902V356.015Z" fill="url(#paint1_linear_64_6101)"/>
</g>
<defs>
<filter id="filter0_d_64_6101" x="0.523438" y="-66" width="696.016" height="1082" filterUnits="userSpaceOnUse" color-interpolation-filters="sRGB">
<feFlood flood-opacity="0" result="BackgroundImageFix"/>
<feColorMatrix in="SourceAlpha" type="matrix" values="0 0 0 0 0 0 0 0 0 0 0 0 0 0 0 0 0 0 127 0" result="hardAlpha"/>
<feOffset dy="4"/>
<feGaussianBlur stdDeviation="50"/>
<feComposite in2="hardAlpha" operator="out"/>
<feColorMatrix type="matrix" values="0 0 0 0 0 0 0 0 0 0 0 0 0 0 0 0 0 0 0.5 0"/>
<feBlend mode="normal" in2="BackgroundImageFix" result="effect1_dropShadow_64_6101"/>
<feBlend mode="normal" in="SourceGraphic" in2="effect1_dropShadow_64_6101" result="shape"/>
</filter>
<filter id="filter1_d_64_6101" x="197" y="209" width="303" height="362" filterUnits="userSpaceOnUse" color-interpolation-filters="sRGB">
<feFlood flood-opacity="0" result="BackgroundImageFix"/>
<feColorMatrix in="SourceAlpha" type="matrix" values="0 0 0 0 0 0 0 0 0 0 0 0 0 0 0 0 0 0 127 0" result="hardAlpha"/>
<feOffset dy="4"/>
<feGaussianBlur stdDeviation="25"/>
<feComposite in2="hardAlpha" operator="out"/>
<feColorMatrix type="matrix" values="0 0 0 0 0.74902 0 0 0 0 0.0705882 0 0 0 0 0.0196078 0 0 0 0.5 0"/>
<feBlend mode="normal" in2="BackgroundImageFix" result="effect1_dropShadow_64_6101"/>
<feBlend mode="normal" in="SourceGraphic" in2="effect1_dropShadow_64_6101" result="shape"/>
</filter>
<linearGradient id="paint0_linear_64_6101" x1="348.531" y1="1030.89" x2="348.531" y2="30" gradientUnits="userSpaceOnUse">
<stop stop-color="#7F0011"/>
<stop offset="1" stop-color="#C02714"/>
</linearGradient>
<linearGradient id="paint1_linear_64_6101" x1="206.438" y1="499.651" x2="565.932" y2="211.286" gradientUnits="userSpaceOnUse">
<stop stop-color="#D41700"/>
<stop offset="1" stop-color="#7F0011"/>
</linearGradient>
</defs>
</svg>
