<svg width="32" height="32" viewBox="0 0 32 32" fill="none" xmlns="http://www.w3.org/2000/svg">
<circle cx="16" cy="16" r="16" fill="#232323"/>
<g clip-path="url(#clip0_64_6167)">
<path d="M22.9851 13.116C22.9523 12.3722 22.832 11.8608 22.6597 11.4176C22.4819 10.9472 22.2085 10.5261 21.8501 10.176C21.5001 9.82047 21.0761 9.5442 20.6112 9.36921C20.1655 9.19689 19.6568 9.0766 18.9129 9.0438C18.1635 9.00823 17.9256 9 16.0248 9C14.124 9 13.8861 9.00823 13.1395 9.04102C12.3956 9.07382 11.8842 9.19422 11.4412 9.36644C10.9707 9.5442 10.5495 9.8177 10.1994 10.176C9.84391 10.5261 9.56775 10.95 9.39265 11.4149C9.22033 11.8608 9.10004 12.3694 9.06724 13.1133C9.03166 13.8627 9.02344 14.1006 9.02344 16.0014C9.02344 17.9021 9.03166 18.14 9.06446 18.8867C9.09726 19.6306 9.21766 20.142 9.38998 20.5851C9.56775 21.0555 9.84391 21.4766 10.1994 21.8267C10.5495 22.1823 10.9734 22.4585 11.4384 22.6335C11.8842 22.8058 12.3928 22.9261 13.1368 22.9589C13.8833 22.9918 14.1214 23 16.0221 23C17.9229 23 18.1608 22.9918 18.9074 22.9589C19.6513 22.9261 20.1627 22.8058 20.6058 22.6335C21.5466 22.2698 22.2905 21.5259 22.6543 20.5851C22.8265 20.1393 22.9469 19.6306 22.9797 18.8867C23.0125 18.14 23.0207 17.9021 23.0207 16.0014C23.0207 14.1006 23.0179 13.8627 22.9851 13.116ZM21.7244 18.832C21.6943 19.5157 21.5794 19.8849 21.4837 20.1311C21.2485 20.741 20.7644 21.225 20.1545 21.4603C19.9084 21.556 19.5365 21.6709 18.8554 21.7009C18.117 21.7338 17.8955 21.7419 16.0276 21.7419C14.1596 21.7419 13.9354 21.7338 13.1996 21.7009C12.5159 21.6709 12.1467 21.556 11.9005 21.4603C11.597 21.3481 11.3208 21.1703 11.0965 20.9379C10.8641 20.7109 10.6863 20.4374 10.5741 20.1339C10.4784 19.8877 10.3635 19.5157 10.3335 18.8348C10.3006 18.0964 10.2925 17.8748 10.2925 16.0068C10.2925 14.1389 10.3006 13.9146 10.3335 13.179C10.3635 12.4952 10.4784 12.126 10.5741 11.8799C10.6863 11.5763 10.8641 11.3001 11.0993 11.0758C11.3262 10.8433 11.5997 10.6655 11.9033 10.5534C12.1495 10.4577 12.5214 10.3429 13.2024 10.3128C13.9408 10.28 14.1624 10.2717 16.0302 10.2717C17.901 10.2717 18.1224 10.28 18.8582 10.3128C19.5419 10.3429 19.9111 10.4577 20.1573 10.5534C20.4608 10.6655 20.7371 10.8433 20.9613 11.0758C21.1938 11.3028 21.3715 11.5763 21.4837 11.8799C21.5794 12.126 21.6943 12.4979 21.7244 13.179C21.7572 13.9174 21.7654 14.1389 21.7654 16.0068C21.7654 17.8748 21.7572 18.0936 21.7244 18.832Z" fill="#AB1D1D"/>
<path d="M16.0261 12.4053C14.0406 12.4053 12.4297 14.0161 12.4297 16.0017C12.4297 17.9873 14.0406 19.5981 16.0261 19.5981C18.0117 19.5981 19.6225 17.9873 19.6225 16.0017C19.6225 14.0161 18.0117 12.4053 16.0261 12.4053ZM16.0261 18.3346C14.738 18.3346 13.6932 17.2899 13.6932 16.0017C13.6932 14.7135 14.738 13.6688 16.0261 13.6688C17.3143 13.6688 18.359 14.7135 18.359 16.0017C18.359 17.2899 17.3143 18.3346 16.0261 18.3346Z" fill="#AB1D1D"/>
<path d="M20.6051 12.2624C20.6051 12.7261 20.2291 13.102 19.7654 13.102C19.3017 13.102 18.9258 12.7261 18.9258 12.2624C18.9258 11.7987 19.3017 11.4229 19.7654 11.4229C20.2291 11.4229 20.6051 11.7987 20.6051 12.2624Z" fill="#AB1D1D"/>
</g>
<defs>
<clipPath id="clip0_64_6167">
<rect width="14" height="14" fill="white" transform="translate(9 9)"/>
</clipPath>
</defs>
</svg>
